# xmcd
#
# Track frame offsets:
#	150
#	9175
#	17175
#	27400
#	38100
#	49800
#	60200
#	72725
#	81375
#	92550
#	102800
#
# Disc length: 1544 seconds
#
# Revision: 1
# Processed by: cddbd v1.5.2PL0 Copyright (c) Steve Scherf et al.
# Submitted via: audiograbber 1.83.01
#
DISCID=8406060b
DTITLE=Johnny Cach - The Tennesse Two Showtime
DYEAR=1991
DGENRE=Country
TTITLE0=Guees Things Happen That Way
TTITLE1=Come In Stranger
TTITLE2=Rock IslandTrack  3
TTITLE3=There You Go
TTITLE4=Big River
TTITLE5=Ballad Of A Teenage Queen
TTITLE6=I  Walke The Line
TTITLE7=Wreck Of The Old 97
TTITLE8=Cry ,Cry,Cry
TTITLE9=Hey Porter
TTITLE10=Folsom Priston Blues
EXTD=
EXTT0=
EXTT1=
EXTT2=
EXTT3=
EXTT4=
EXTT5=
EXTT6=
EXTT7=
EXTT8=
EXTT9=
EXTT10=
PLAYORDER=
